<svg width="24" height="24" viewBox="0 0 24 24" fill="none" xmlns="http://www.w3.org/2000/svg">
<path d="M0.160606 15.9252L2.56061 20.0772C2.71994 20.3526 2.98213 20.5535 3.28952 20.6356C3.59691 20.7177 3.92434 20.6744 4.19981 20.5152L5.87501 19.548C6.57101 20.0964 7.34021 20.5464 8.14901 20.8824V22.8C8.14901 23.1183 8.27543 23.4235 8.50048 23.6485C8.72552 23.8736 9.03075 24 9.34901 24H14.149C14.4673 24 14.7725 23.8736 14.9975 23.6485C15.2226 23.4235 15.349 23.1183 15.349 22.8V20.8824C16.1641 20.543 16.9292 20.0941 17.623 19.548L19.2982 20.5152C19.8706 20.8452 20.6074 20.6472 20.9374 20.0772L23.3374 15.9252C23.4953 15.6494 23.5379 15.3224 23.4559 15.0154C23.3739 14.7084 23.1738 14.4462 22.8994 14.286L21.253 13.3344C21.3816 12.4494 21.3808 11.5504 21.2506 10.6656L22.897 9.714C23.4682 9.384 23.6662 8.646 23.335 8.0748L20.935 3.9228C20.7757 3.6474 20.5135 3.44654 20.2061 3.36441C19.8987 3.28227 19.5713 3.32558 19.2958 3.4848L17.6206 4.452C16.9277 3.90525 16.1629 3.45626 15.3478 3.1176V1.2C15.3478 0.88174 15.2214 0.576515 14.9963 0.351472C14.7713 0.126428 14.4661 0 14.1478 0H9.34781C9.02955 0 8.72432 0.126428 8.49928 0.351472C8.27423 0.576515 8.14781 0.88174 8.14781 1.2V3.1176C7.33268 3.45697 6.56763 3.90591 5.87381 4.452L4.19981 3.4848C4.06345 3.4058 3.91285 3.35446 3.75663 3.33372C3.60041 3.31298 3.44164 3.32325 3.28939 3.36393C3.13714 3.40461 2.99441 3.47491 2.86936 3.57081C2.74431 3.6667 2.63939 3.78632 2.56061 3.9228L0.160606 8.0748C0.00267182 8.35056 -0.0399144 8.67756 0.0421217 8.98458C0.124158 9.29159 0.324172 9.55377 0.598606 9.714L2.24501 10.6656C2.11557 11.5505 2.11557 12.4495 2.24501 13.3344L0.598606 14.286C0.0274064 14.616 -0.170594 15.354 0.160606 15.9252ZM11.7478 7.2C14.395 7.2 16.5478 9.3528 16.5478 12C16.5478 14.6472 14.395 16.8 11.7478 16.8C9.10061 16.8 6.94781 14.6472 6.94781 12C6.94781 9.3528 9.10061 7.2 11.7478 7.2Z" fill="currentColor"/>
</svg>
