<svg width="24" height="24" viewBox="0 0 24 24" fill="none" xmlns="http://www.w3.org/2000/svg">
<path d="M12.3354 23.9937H12.2152C10.5662 23.9811 8.93642 23.6397 7.42111 22.9894C5.9058 22.3391 4.53548 21.393 3.39037 20.2065C1.26695 17.9357 0.0598972 14.9589 0.0021702 11.8505C-0.0555568 8.74211 1.04013 5.72252 3.07778 3.37447C4.39053 1.90329 6.04085 0.772821 7.88692 0.0802072C8.10233 -0.00268032 8.33704 -0.0218152 8.56302 0.0250875C8.78901 0.0719902 8.99672 0.182948 9.16134 0.34471C9.31381 0.500192 9.42119 0.694166 9.47201 0.905919C9.52283 1.11767 9.51519 1.33925 9.44989 1.547C8.79099 3.35155 8.66044 5.3066 9.07358 7.18274C9.48671 9.05888 10.4264 10.7783 11.7823 12.1391C13.1509 13.4909 14.8744 14.4274 16.7532 14.8402C18.632 15.253 20.5893 15.1252 22.3985 14.4716C22.6138 14.3958 22.8463 14.3828 23.0687 14.4343C23.2911 14.4858 23.4943 14.5995 23.6545 14.7622C23.8146 14.9249 23.9252 15.1298 23.9731 15.353C24.0211 15.5762 24.0046 15.8084 23.9254 16.0225C23.3112 17.6621 22.3518 19.1505 21.1121 20.3868C19.9589 21.5366 18.5898 22.4471 17.0837 23.0661C15.5775 23.6851 13.9638 24.0003 12.3354 23.9937Z" fill="white"/>
</svg>
