<svg width="24" height="24" viewBox="0 0 24 24" fill="none" xmlns="http://www.w3.org/2000/svg">
<path d="M9.06479 1.81688C10.3755 1.27375 11.7811 0.996107 13.1999 1.00004C14.6187 0.996107 16.0242 1.27375 17.335 1.81688C18.6457 2.36001 19.8357 3.15783 20.8359 4.16412C22.8757 6.20272 24 8.91445 24 11.8002C24 14.6859 22.8757 17.3976 20.8359 19.4362C18.7973 21.476 16.0856 22.6003 13.1999 22.6003C10.3142 22.6003 7.60244 21.476 5.56384 19.4362L7.26047 17.7396C8.84671 19.3258 10.9561 20.2005 13.1999 20.2005C15.4437 20.2005 17.553 19.3258 19.1393 17.7396C20.7255 16.1533 21.6002 14.0439 21.6002 11.8002C21.6002 9.55639 20.7255 7.447 19.1393 5.86076C17.553 4.27451 15.4437 3.3998 13.1999 3.3998C10.9561 3.3998 8.84671 4.27451 7.26047 5.86076L5.56384 4.16412C6.56407 3.15783 7.75403 2.36001 9.06479 1.81688Z" fill="white"/>
<path d="M5.9994 16.5997L0 11.8002L5.9994 7.00065V10.6003H16.7983V13H5.9994V16.5997Z" fill="white"/>
</svg>
