<svg width="24" height="24" viewBox="0 0 24 24" fill="none" xmlns="http://www.w3.org/2000/svg">
<path d="M6 20.6445V12.4995C6 11.2013 6.42107 9.93808 7.2 8.8995L9.3 6.1005C10.0789 5.06192 10.5 3.79872 10.5 2.5005V1.5C10.5 1.10218 10.658 0.720644 10.9393 0.43934C11.2206 0.158035 11.6022 0 12 0C12.7956 0 13.5587 0.31607 14.1213 0.87868C14.6839 1.44129 15 2.20435 15 3V9H20.34C20.7838 9.00005 21.2221 9.09856 21.6232 9.28843C22.0243 9.4783 22.3783 9.75481 22.6597 10.098C22.9411 10.4412 23.1428 10.8426 23.2503 11.2732C23.3578 11.7037 23.3685 12.1528 23.2815 12.588L21.4815 21.588C21.3455 22.2683 20.9779 22.8805 20.4413 23.3203C19.9047 23.7601 19.2323 24.0003 18.5385 24H10.4145C9.484 23.9997 8.56633 23.783 7.734 23.367L7.659 23.3295C7.1603 23.0803 6.74091 22.6971 6.44787 22.2228C6.15483 21.7485 5.99974 21.202 6 20.6445Z" fill="currentColor"/>
<path d="M0.171271 11.889C0.0581982 12.1619 0 12.4545 0 12.75V21.75C0 22.3467 0.237053 22.919 0.65901 23.341C1.08097 23.7629 1.65326 24 2.25 24C2.84674 24 3.41903 23.7629 3.84099 23.341C4.26295 22.919 4.5 22.3467 4.5 21.75V12.75C4.5 12.4545 4.4418 12.1619 4.32873 11.889C4.21566 11.616 4.04992 11.3679 3.84099 11.159C3.63206 10.9501 3.38402 10.7843 3.11104 10.6713C2.83806 10.5582 2.54547 10.5 2.25 10.5C1.95453 10.5 1.66194 10.5582 1.38896 10.6713C1.11598 10.7843 0.867942 10.9501 0.65901 11.159C0.450078 11.3679 0.284344 11.616 0.171271 11.889Z" fill="currentColor"/>
</svg>
