<svg width="24" height="24" viewBox="0 0 24 24" fill="none" xmlns="http://www.w3.org/2000/svg">
<path d="M18.857 12.6832C18.8455 10.7159 19.7368 9.2333 21.5367 8.14007C20.53 6.69782 19.007 5.90458 16.9994 5.7517C15.0985 5.60171 13.0188 6.85935 12.2573 6.85935C11.4525 6.85935 9.6122 5.80362 8.16418 5.80362C5.17584 5.84977 2 8.18622 2 12.9399C2 14.3446 2.25672 15.7955 2.77016 17.2897C3.45667 19.2569 5.93158 24.0769 8.51321 23.9991C9.86315 23.9673 10.8179 23.0414 12.5746 23.0414C14.2793 23.0414 15.162 23.9991 16.6677 23.9991C19.2724 23.9616 21.5108 19.58 22.1627 17.607C18.6695 15.96 18.857 12.7841 18.857 12.6832ZM15.8254 3.88543C17.2879 2.14895 17.1552 0.568247 17.1119 0C15.8197 0.0749971 14.3255 0.879774 13.4746 1.86916C12.5371 2.93066 11.9861 4.2431 12.1044 5.72285C13.5005 5.82958 14.7755 5.11134 15.8254 3.88543Z" fill="currentColor"/>
</svg>
